<?xml version="1.0" encoding="utf-8"?>
<!-- Generator: Adobe Illustrator 16.0.0, SVG Export Plug-In . SVG Version: 6.00 Build 0)  -->
<!DOCTYPE svg PUBLIC "-//W3C//DTD SVG 1.1//EN" "http://www.w3.org/Graphics/SVG/1.1/DTD/svg11.dtd">
<svg version="1.1" id="Layer_1" xmlns="http://www.w3.org/2000/svg" xmlns:xlink="http://www.w3.org/1999/xlink" x="0px" y="0px"
	 width="225.141px" height="82.007px" viewBox="0 0 225.141 82.007" enable-background="new 0 0 225.141 82.007"
	 xml:space="preserve">
<g enable-background="new    ">
	<path fill="#F37269" d="M0.575,77.687c-0.384-0.623-0.576-1.943-0.576-3.959s0.924-7.488,2.772-16.416
		c1.848-8.928,2.772-14.52,2.772-16.777c0-2.255-0.216-3.971-0.648-5.147c-0.432-1.176-0.864-1.932-1.296-2.269l-0.648-0.504
		l0.144-1.08c2.88-0.911,7.751-1.367,14.616-1.367c0.383,0.72,0.695,1.655,0.936,2.808c3.071-2.207,5.976-3.312,8.712-3.312
		c2.736,0,4.979,1.045,6.732,3.133c1.751,2.088,2.628,5.628,2.628,10.62c0,4.992-1.309,9.408-3.924,13.248
		c-2.617,3.84-6.444,5.76-11.484,5.76c-2.208,0-4.368-0.432-6.48-1.295c-1.104,5.422-1.656,10.199-1.656,14.328
		C9.719,76.703,5.519,77.447,0.575,77.687z M17.999,56.376c1.296,0,2.4-0.961,3.312-2.881c1.631-3.359,2.448-7.439,2.448-12.24
		c0-2.832-0.696-4.248-2.088-4.248c-0.72,0-1.681,0.264-2.88,0.792c-0.288,4.032-1.249,10.104-2.88,18.215
		C16.727,56.255,17.424,56.376,17.999,56.376z"/>
	<path fill="#F37269" d="M51.119,62.423c-3.744,0-6.696-1.188-8.856-3.564c-2.16-2.375-3.24-5.723-3.24-10.043
		c0-5.279,1.559-9.756,4.68-13.428c3.12-3.672,7.224-5.508,12.312-5.508l3.24,0.288c1.152-0.336,2.232-0.505,3.24-0.505
		c2.399,0,4.115,0.817,5.148,2.448c1.032,1.633,1.62,3.96,1.764,6.984c2.016-0.096,3.935-0.407,5.76-0.937l1.008-0.288
		c0.335,0.337,0.576,1.345,0.72,3.024l0.072,0.792c-2.16,1.105-4.8,1.969-7.92,2.592c-1.056,5.09-3.144,9.385-6.264,12.889
		C59.662,60.671,55.774,62.423,51.119,62.423z M52.559,48.527c0,4.465,1.127,6.697,3.384,6.697c1.584,0,3.204-1.008,4.86-3.025
		c1.656-2.016,2.795-4.463,3.42-7.344c-4.896,0-7.344-2.352-7.344-7.055c0-0.815,0.072-1.656,0.216-2.521
		c-0.48,0-0.841,0.072-1.08,0.216c-0.817,0.864-1.597,2.604-2.34,5.221C52.93,43.332,52.559,45.935,52.559,48.527z"/>
	<path fill="#F37269" d="M69.551,77.687c-0.384-0.623-0.576-1.943-0.576-3.959s0.924-7.488,2.772-16.416
		c1.848-8.928,2.772-14.52,2.772-16.777c0-2.255-0.216-3.971-0.648-5.147c-0.432-1.176-0.864-1.932-1.296-2.269l-0.648-0.504
		l0.144-1.08c2.88-0.911,7.751-1.367,14.616-1.367c0.383,0.72,0.695,1.655,0.936,2.808c3.071-2.207,5.976-3.312,8.712-3.312
		c2.736,0,4.979,1.045,6.732,3.133c1.751,2.088,2.628,5.628,2.628,10.62c0,4.992-1.309,9.408-3.924,13.248
		c-2.617,3.84-6.444,5.76-11.484,5.76c-2.208,0-4.368-0.432-6.48-1.295c-1.104,5.422-1.656,10.199-1.656,14.328
		C78.695,76.703,74.494,77.447,69.551,77.687z M86.975,56.376c1.296,0,2.4-0.961,3.312-2.881c1.631-3.359,2.448-7.439,2.448-12.24
		c0-2.832-0.696-4.248-2.088-4.248c-0.72,0-1.681,0.264-2.88,0.792c-0.288,4.032-1.249,10.104-2.88,18.215
		C85.703,56.255,86.399,56.376,86.975,56.376z"/>
	<path fill="#F37269" d="M134.422,63.287c-2.016,0-4.956-1.055-8.819-3.168c-3.864-2.111-6.108-3.238-6.731-3.383
		c-2.881,3.793-5.569,5.688-8.064,5.688c-0.673,0-1.681-0.936-3.024-2.809c-1.343-1.871-2.016-3.623-2.016-5.256
		c0-0.719,0.745-1.619,2.232-2.699s3.192-1.836,5.112-2.268c1.296-3.025,2.58-7.607,3.853-13.752
		c1.271-6.144,1.908-11.544,1.908-16.2c0-0.768-0.252-1.631-0.756-2.592c-0.505-0.96-0.998-1.729-1.477-2.304l-0.792-0.864
		l0.216-1.44c2.639-1.199,8.111-1.8,16.416-1.8c0.768,1.2,1.152,3.24,1.152,6.12s-1.272,7.873-3.816,14.976
		c-2.545,7.104-5.088,13.273-7.632,18.505c4.8,1.248,9.384,1.871,13.752,1.871c1.008,0,1.836-0.24,2.483-0.721
		c0.648-0.479,1.356-1.486,2.125-3.023l3.959,1.367c-0.768,4.562-1.932,7.992-3.491,10.297
		C139.45,62.136,137.254,63.287,134.422,63.287z"/>
</g>
<g enable-background="new    ">
	<path fill="#F37269" d="M161.349,34.128c0,2.016-0.648,5.484-1.943,10.403c-1.297,4.922-1.945,8.137-1.945,9.648
		s0.217,2.268,0.648,2.268c0.288,0,1.393-0.455,3.312-1.367l0.863-0.432l1.225,2.52c-0.432,0.385-1.008,0.863-1.729,1.439
		c-0.72,0.576-2.064,1.357-4.031,2.34c-1.969,0.984-3.793,1.477-5.473,1.477c-1.681,0-3-0.516-3.959-1.547
		c-0.961-1.033-1.441-2.424-1.441-4.178c0-1.75,0.6-4.871,1.801-9.359c1.199-4.488,1.8-7.404,1.8-8.748
		c0-2.017-0.624-3.912-1.872-5.688l-0.648-0.863l0.072-0.937c2.544-0.72,6.672-1.08,12.385-1.08
		C161.037,30.743,161.349,32.111,161.349,34.128z M153.141,22.14c-0.961-0.937-1.44-2.196-1.44-3.78s0.66-2.976,1.98-4.176
		c1.32-1.199,2.844-1.8,4.572-1.8c1.728,0,3.07,0.48,4.031,1.439c0.96,0.961,1.44,2.221,1.44,3.78c0,1.561-0.685,2.94-2.052,4.14
		c-1.368,1.201-2.893,1.801-4.572,1.801C155.421,23.544,154.101,23.075,153.141,22.14z"/>
	<path fill="#F37269" d="M167.972,61.775h-1.368c0-2.256,0.685-6.574,2.052-12.959c1.368-6.383,2.053-10.008,2.053-10.873
		c0-1.584-0.673-3.264-2.016-5.04l-0.648-0.863l0.072-0.937c2.592-0.72,6.742-1.08,12.455-1.08c0.623,0.816,0.96,2.304,1.008,4.464
		c4.177-3.215,7.705-4.824,10.584-4.824c1.729,0,3.107,0.602,4.141,1.801c1.031,1.2,1.548,2.699,1.548,4.5
		c0,1.8-0.552,4.908-1.655,9.323c-1.105,4.418-1.656,7.381-1.656,8.893s0.191,2.268,0.576,2.268c0.287,0,1.295-0.455,3.023-1.367
		l0.864-0.432l1.296,2.52c-0.432,0.385-1.008,0.863-1.729,1.439c-0.72,0.576-2.052,1.357-3.996,2.34
		c-1.943,0.984-3.684,1.477-5.22,1.477c-3.505,0-5.256-1.99-5.256-5.977c0-1.68,0.54-4.775,1.62-9.287s1.62-7.417,1.62-8.712
		s-0.409-1.943-1.224-1.943c-1.393,0-3.097,0.601-5.112,1.8c-0.144,0.816-0.624,2.977-1.44,6.479
		c-1.681,7.537-2.52,12.865-2.52,15.984C175.363,61.441,172.34,61.775,167.972,61.775z"/>
	<path fill="#F37269" d="M225.14,30.527c-0.098,1.2-0.504,2.592-1.225,4.176c-1.824-0.19-3.553-0.287-5.184-0.287h-1.296
		c-2.208,10.705-3.312,17.376-3.312,20.015c0,1.393,0.299,2.088,0.899,2.088c0.6,0,2.196-0.6,4.788-1.799l1.296,2.375
		c-4.272,3.553-8.233,5.328-11.88,5.328c-1.682,0-3.061-0.529-4.141-1.584s-1.619-2.459-1.619-4.211s0.203-3.732,0.611-5.941
		c0.408-2.207,0.973-4.906,1.692-8.1c0.72-3.192,1.247-5.771,1.584-7.74c-1.776,0.144-3.097,0.288-3.96,0.432
		c-0.097-0.576-0.145-1.355-0.145-2.34c0-0.983,0.072-1.787,0.217-2.412h4.535c0.385-2.592,0.576-5.04,0.576-7.344l-0.072-2.232
		v-0.216c3.744-1.296,7.272-1.943,10.584-1.943c0.191,0.96,0.289,2.159,0.289,3.6s-0.408,4.152-1.225,8.136H225.14z"/>
</g>
</svg>
