<?xml version="1.0" standalone="no"?>
<!DOCTYPE svg PUBLIC "-//W3C//DTD SVG 20010904//EN"
 "http://www.w3.org/TR/2001/REC-SVG-20010904/DTD/svg10.dtd">
<svg version="1.0" xmlns="http://www.w3.org/2000/svg"
 width="260.000000pt" height="260.000000pt" viewBox="0 0 260.000000 260.000000"
 preserveAspectRatio="xMidYMid meet">
<metadata>
Created by potrace 1.11, written by Peter Selinger 2001-2013
</metadata>
<g transform="translate(0.000000,260.000000) scale(0.100000,-0.100000)"
fill="#000000" stroke="none">
<path d="M1595 2294 c-73 -19 -150 -50 -209 -84 -69 -41 -85 -41 -86 -2 0 7
-7 27 -16 43 l-15 30 -167 -6 c-204 -7 -246 -11 -379 -37 -51 -9 -62 -15 -66
-34 -3 -16 5 -32 24 -50 33 -32 64 -106 73 -178 18 -131 3 -265 -66 -611 -16
-82 -31 -159 -33 -170 -2 -11 -10 -54 -19 -95 -8 -41 -17 -87 -20 -103 -3 -15
-7 -35 -10 -45 -3 -9 -21 -107 -40 -217 -27 -156 -34 -222 -32 -300 4 -142 1
-138 105 -130 98 9 100 9 161 19 114 18 279 61 281 74 1 4 2 36 4 71 3 73 13
194 19 231 3 14 7 45 10 70 3 25 13 84 22 131 l16 86 58 -18 c173 -53 363 -41
502 33 106 56 179 134 249 268 81 153 109 288 105 500 -5 219 -39 329 -129
423 -65 68 -139 99 -241 103 -44 1 -90 1 -101 -2z m-89 -352 c14 -30 18 -61
17 -157 -1 -143 -22 -272 -63 -385 -58 -160 -103 -210 -190 -210 -59 0 -71 9
-64 45 3 17 16 89 29 160 28 156 37 203 41 230 1 11 5 38 9 60 11 77 25 180
29 223 4 53 11 60 72 76 65 17 97 5 120 -42z"/>
</g>
</svg>
